<svg xmlns="http://www.w3.org/2000/svg" viewBox="0 0 720 540" role="img" aria-labelledby="title desc">
  <title id="title">Deck and timber repair visual</title>
  <desc id="desc">Outdoor deck boards, timber screen and carpentry repair details.</desc>
  <rect width="720" height="540" fill="#F6F3ED"/>
  <path d="M0 0h720v278H0Z" fill="#10243A"/>
  <circle cx="590" cy="95" r="54" fill="#C99A2E"/>
  <path d="M0 300h720v240H0Z" fill="#4D6A56"/>
  <path d="M65 350h590v112H65Z" fill="#C99A2E"/>
  <g stroke="#10243A" stroke-width="10">
    <path d="M86 378h548"/>
    <path d="M86 421h548"/>
    <path d="M142 350v112"/>
    <path d="M250 350v112"/>
    <path d="M358 350v112"/>
    <path d="M466 350v112"/>
    <path d="M574 350v112"/>
  </g>
  <g transform="translate(118 106)">
    <rect width="206" height="172" fill="#E8E1D6"/>
    <path d="M34 0v172M75 0v172M116 0v172M157 0v172" stroke="#10243A" stroke-width="10"/>
  </g>
  <path d="M391 254 515 137l124 117" fill="none" stroke="#E8E1D6" stroke-width="18" stroke-linecap="round" stroke-linejoin="round"/>
  <path d="M435 255h160v72H435Z" fill="#E8E1D6"/>
</svg>
