<svg xmlns="http://www.w3.org/2000/svg" viewBox="0 0 720 540" role="img" aria-labelledby="title desc">
  <title id="title">Property maintenance visual</title>
  <desc id="desc">A maintenance checklist, home, tools and coordinated trade details.</desc>
  <rect width="720" height="540" fill="#171A1D"/>
  <path d="M0 362h720v178H0Z" fill="#10243A"/>
  <rect x="96" y="90" width="250" height="348" rx="14" fill="#F6F3ED"/>
  <path d="M142 158h158M142 218h158M142 278h158M142 338h118" stroke="#10243A" stroke-width="14" stroke-linecap="round"/>
  <path d="m121 154 15 15 29-35M121 214l15 15 29-35M121 274l15 15 29-35" fill="none" stroke="#C99A2E" stroke-width="12" stroke-linecap="round" stroke-linejoin="round"/>
  <path d="M424 296 544 201l120 95v106H424Z" fill="#E8E1D6"/>
  <path d="M401 298 544 174l143 124" fill="none" stroke="#C99A2E" stroke-width="17" stroke-linecap="round" stroke-linejoin="round"/>
  <rect x="487" y="331" width="55" height="71" fill="#10243A"/>
  <rect x="572" y="331" width="51" height="41" fill="#3F6F8F"/>
</svg>
